<?xml version="1.0" standalone="no"?><!DOCTYPE svg PUBLIC "-//W3C//DTD SVG 1.1//EN" "http://www.w3.org/Graphics/SVG/1.1/DTD/svg11.dtd"><svg t="1515485259188" class="icon" style="" viewBox="0 0 1117 1024" version="1.1" xmlns="http://www.w3.org/2000/svg" p-id="1017" xmlns:xlink="http://www.w3.org/1999/xlink" width="17.453125" height="16"><defs><style type="text/css"></style></defs><path d="M922.903273 836.794182H778.519273l1.675636 1.117091c-351.883636 0-610.024727 133.864727-610.024727 133.864727V837.818182c0-1.210182 0.279273-2.234182 0.372363-3.444364a193.536 193.536 0 0 1-169.797818-191.767273V195.304727C0.744727 87.970909 87.505455 1.117091 194.839273 1.117091h727.970909C1030.144 1.117091 1117.090909 87.970909 1117.090909 195.211636v447.488a194.187636 194.187636 0 0 1-194.094545 194.094546z m-597.643637-476.253091a72.052364 72.052364 0 0 0-72.797091 71.307636c0 39.377455 32.581818 71.307636 72.797091 71.307637a72.052364 72.052364 0 0 0 72.797091-71.307637 72.052364 72.052364 0 0 0-72.797091-71.307636z m251.810909 0a71.307636 71.307636 0 1 0 0 142.615273 71.307636 71.307636 0 0 0 0-142.615273z m251.717819 0a72.052364 72.052364 0 0 0-72.797091 71.307636c0 39.377455 32.581818 71.307636 72.797091 71.307637a72.052364 72.052364 0 0 0 72.797091-71.307637 72.052364 72.052364 0 0 0-72.797091-71.307636z" p-id="1018" fill="#e6e6e6"></path></svg>