<?xml version="1.0" standalone="no"?><!DOCTYPE svg PUBLIC "-//W3C//DTD SVG 1.1//EN" "http://www.w3.org/Graphics/SVG/1.1/DTD/svg11.dtd"><svg t="1515564020760" class="icon" style="" viewBox="0 0 1024 1024" version="1.1" xmlns="http://www.w3.org/2000/svg" p-id="9338" xmlns:xlink="http://www.w3.org/1999/xlink" width="16" height="16"><defs><style type="text/css"></style></defs><path d="M681.6 192c-51.2 0-99.2 19.2-137.6 57.6-12.8 12.8-32 12.8-41.6 0C464 214.4 416 192 364.8 192c-105.6 0-192 86.4-195.2 192l0 6.4c3.2 182.4 211.2 332.8 300.8 387.2 16 9.6 32 16 51.2 16 19.2 0 35.2-6.4 51.2-16 80-51.2 268.8-182.4 297.6-345.6 3.2-6.4 6.4-35.2 6.4-41.6C876.8 281.6 787.2 192 681.6 192zM806.4 419.2c-25.6 140.8-195.2 259.2-268.8 304-9.6 6.4-25.6 6.4-35.2 0-64-38.4-265.6-179.2-272-332.8l0-3.2C236.8 316.8 294.4 256 364.8 256c35.2 0 67.2 12.8 92.8 38.4 35.2 35.2 96 35.2 131.2 0C614.4 272 646.4 256 681.6 256c73.6 0 131.2 60.8 131.2 131.2C812.8 393.6 809.6 412.8 806.4 419.2z" p-id="9339" fill="#42A5F5"></path></svg>