<?xml version="1.0" standalone="no"?><!DOCTYPE svg PUBLIC "-//W3C//DTD SVG 1.1//EN" "http://www.w3.org/Graphics/SVG/1.1/DTD/svg11.dtd"><svg t="1515552430644" class="icon" style="" viewBox="0 0 1024 1024" version="1.1" xmlns="http://www.w3.org/2000/svg" p-id="5039" xmlns:xlink="http://www.w3.org/1999/xlink" width="30" height="30"><defs><style type="text/css"></style></defs><path d="M954.15 673.66l12.61-3.15a51.79 51.79 0 0 0 40.15-61.25q-0.23-1.13-0.52-2.24v-4.5a52.69 52.69 0 0 0-63.94-37.38l-12.61 3.15-6.3-11.71 14.86-4.05A51.79 51.79 0 0 0 976.45 490q-0.11-0.46-0.23-0.92v-6.3a52.69 52.69 0 0 0-63.94-37.38l-14.87 3.6-3.15-11.71 28.37-7.2a51.79 51.79 0 0 0 38.06-62.57q-0.11-0.46-0.23-0.92l-3.15-11.71a52.69 52.69 0 0 0-63.94-37.38l-27.92 7.2-4.05-15.31h7.2a51.79 51.79 0 0 0 38.06-62.57q-0.11-0.46-0.23-0.92v-8.56a52.69 52.69 0 0 0-63.94-37.38h-7.2l-35.6-135.13a63.49 63.49 0 0 0-77-45l-424.19 104a62.59 62.59 0 0 0-45 76.1l12.16 45c-37.38 26.57-82 66.2-78.8 95A608.82 608.82 0 0 0 199 468.32c12.16 25.22 55.84 96.82 27 132.84A2147.07 2147.07 0 0 1 30.11 774.08a35.57 35.57 0 0 0 0 56.74c25.67 27 154 126.54 170.22 143.2a77.45 77.45 0 0 0 109.43-4.79q1.87-2 3.6-4.22L421 847.48l28.8 111.68a63.49 63.49 0 0 0 77 45l419.69-104.89a62.59 62.59 0 0 0 45-76.1L952.8 673.66z m-82.86 104l-342.68 85.58A51.79 51.79 0 0 1 466 826.77l-5.85-22.52-61.23-238.66L359.29 412h116.63s100.87-4.5 69.35-58.09c-27.47-45-165.71-122-221.1-132.84a51.34 51.34 0 0 1 34.22-24.77l342.69-85.56a51.79 51.79 0 0 1 63 36.93l17.11 65.75-64.84 16.66a51.79 51.79 0 0 0-38.06 62.57q0.11 0.46 0.23 0.92v8.56a52.69 52.69 0 0 0 63.94 37.38l64.39-16.66 4.05 15.31-90.06 23a51.79 51.79 0 0 0-38.06 62.57q0.11 0.46 0.23 0.92l3.15 11.71a52.69 52.69 0 0 0 63.94 37.38l90.06-23 3.15 11.71-56.74 14.41a51.79 51.79 0 0 0-38.06 62.57q0.11 0.46 0.23 0.92v6.3A52.69 52.69 0 0 0 812.75 584l58.54-14.41 3.15 11.71-39.18 9.91a51.79 51.79 0 0 0-38.06 62.57q0.11 0.46 0.23 0.92v4.5a52.69 52.69 0 0 0 63.94 37.38l38.73-9.91 7.2 28.82a51.34 51.34 0 0 1-36.01 62.19z" fill="#1296db" p-id="5040"></path></svg>