<?xml version="1.0" standalone="no"?><!DOCTYPE svg PUBLIC "-//W3C//DTD SVG 1.1//EN" "http://www.w3.org/Graphics/SVG/1.1/DTD/svg11.dtd"><svg t="1515554594665" class="icon" style="" viewBox="0 0 1024 1024" version="1.1" xmlns="http://www.w3.org/2000/svg" p-id="5828" xmlns:xlink="http://www.w3.org/1999/xlink" width="30" height="30"><defs><style type="text/css"></style></defs><path d="M867.927385 243.393379 715.452715 243.393379l0 86.86437c19.24532 9.142218 32.552393 28.760021 32.552393 51.484581 0 31.462572-25.504884 56.966433-56.966433 56.966433-31.462572 0-56.966433-25.50386-56.966433-56.966433 0-22.724561 13.30605-42.341341 32.552393-51.484581l0-86.86437L357.375364 243.393379l0 86.86437c19.24532 9.142218 32.552393 28.760021 32.552393 51.484581 0 31.462572-25.504884 56.966433-56.966433 56.966433-31.462572 0-56.966433-25.50386-56.966433-56.966433 0-22.724561 13.30605-42.341341 32.552393-51.484581l0-86.86437L156.051125 243.393379c-14.666024 0-26.543539 11.857049-26.543539 26.469861l0 558.017056c0 72.588225 56.267515 131.667785 125.44199 131.667785l514.489704 0c68.952418 0 125.052111-59.084677 125.052111-131.667785L894.491391 269.863241C894.491391 255.251452 882.59341 243.393379 867.927385 243.393379z" p-id="5829" fill="#d81e06"></path><path d="M357.375364 145.790434c0-17.954931 14.501272-32.510438 32.509415-32.510438l244.228397 0c17.954931 0 32.510438 14.58109 32.510438 32.510438l0 97.602945 48.829102 0 0-113.904213c0-35.796274-29.170366-65.037249-65.151859-65.037249L373.697097 64.451918c-35.887348 0-65.150836 29.118178-65.150836 65.037249l0 113.904213 48.829102 0L357.375364 145.790434z" p-id="5830" fill="#d81e06"></path></svg>