<?xml version="1.0" standalone="no"?><!DOCTYPE svg PUBLIC "-//W3C//DTD SVG 1.1//EN" "http://www.w3.org/Graphics/SVG/1.1/DTD/svg11.dtd"><svg t="1515459862563" class="icon" style="" viewBox="0 0 1025 1024" version="1.1" xmlns="http://www.w3.org/2000/svg" p-id="9066" xmlns:xlink="http://www.w3.org/1999/xlink" width="16.015625" height="16"><defs><style type="text/css"></style></defs><path d="M940.443648 551.662933 582.828715 960.785067C566.922581 979.012267 544.019115 989.525333 519.989248 989.661867L519.579648 989.661867C495.754581 989.661867 472.953515 979.421867 456.944981 961.4336L89.636181 550.126933C16.078848 474.794667-42.425685 332.868267 40.620715 187.016533 84.686848 109.704533 154.591915 56.149333 232.484181 40.174933 314.677248 23.3472 400.317781 44.9536 467.560448 99.396267 486.845781 115.029333 503.878315 132.7104 518.453248 151.9616 530.707115 135.031467 544.770048 119.432533 560.539648 105.506133 619.010048 53.725867 693.932715 30.3104 771.517781 39.2192 897.947648 53.896533 1000.381781 156.603733 1020.452181 289.006933 1035.027115 384.7168 1008.812715 470.664533 940.443648 551.662933Z" p-id="9067" fill="#ffffff"></path></svg>