<?xml version="1.0" standalone="no"?><!DOCTYPE svg PUBLIC "-//W3C//DTD SVG 1.1//EN" "http://www.w3.org/Graphics/SVG/1.1/DTD/svg11.dtd"><svg t="1515412006701" class="icon" style="" viewBox="0 0 1024 1024" version="1.1" xmlns="http://www.w3.org/2000/svg" p-id="1181" xmlns:xlink="http://www.w3.org/1999/xlink" width="30" height="30"><defs><style type="text/css"></style></defs><path d="M365.965 202.986l-282.31 282.309c-0.888 0.888-1.73 1.824-2.528 2.797-0.065 0.079-0.125 0.161-0.188 0.239-0.714 0.887-1.391 1.804-2.024 2.753-0.087 0.129-0.167 0.262-0.252 0.392-0.59 0.91-1.145 1.841-1.657 2.802-0.074 0.139-0.142 0.279-0.215 0.421-0.497 0.962-0.957 1.944-1.371 2.952-0.048 0.119-0.092 0.236-0.139 0.356-0.409 1.025-0.779 2.073-1.099 3.141-0.027 0.089-0.049 0.178-0.076 0.267-0.316 1.083-0.588 2.18-0.805 3.3-0.014 0.072-0.024 0.144-0.039 0.216-0.212 1.116-0.379 2.249-0.49 3.396-0.005 0.062-0.008 0.124-0.014 0.188-0.105 1.148-0.168 2.31-0.167 3.486s0.061 2.338 0.167 3.486c0.006 0.064 0.008 0.126 0.014 0.188 0.111 1.148 0.278 2.28 0.49 3.396 0.014 0.072 0.025 0.144 0.039 0.217 0.219 1.119 0.49 2.218 0.806 3.299 0.025 0.089 0.048 0.178 0.076 0.267 0.319 1.067 0.689 2.115 1.099 3.142 0.047 0.119 0.091 0.235 0.14 0.355 0.414 1.008 0.874 1.99 1.37 2.952 0.073 0.141 0.141 0.281 0.215 0.421 0.512 0.96 1.066 1.893 1.657 2.801 0.085 0.132 0.164 0.263 0.252 0.392 0.633 0.95 1.309 1.867 2.024 2.753 0.063 0.078 0.123 0.161 0.188 0.239 0.796 0.972 1.638 1.907 2.528 2.797v0l282.31 282.312c14.749 14.749 38.662 14.749 53.411 0 7.375-7.374 11.062-17.038 11.062-26.705 0-9.665-3.688-19.331-11.062-26.705l-217.836-217.837h707.313c20.86 0 37.767-16.908 37.767-37.767 0-20.858-16.908-37.767-37.767-37.767h-707.315l217.836-217.837c7.375-7.374 11.062-17.040 11.062-26.705 0-9.665-3.688-19.332-11.062-26.706-14.75-14.748-38.662-14.748-53.409 0.001z" p-id="1182" fill="#ffffff"></path></svg>