<?xml version="1.0" standalone="no"?><!DOCTYPE svg PUBLIC "-//W3C//DTD SVG 1.1//EN" "http://www.w3.org/Graphics/SVG/1.1/DTD/svg11.dtd"><svg t="1515371061476" class="icon" style="" viewBox="0 0 1024 1024" version="1.1" xmlns="http://www.w3.org/2000/svg" p-id="1005" xmlns:xlink="http://www.w3.org/1999/xlink" width="32" height="32"><defs><style type="text/css"></style></defs><path d="M759.518 934.751h-646.012c-64.371 0-111.262-43.042-111.262-102.371v-18.819c0-51.258 36.147-100.3 88.001-119.184l158.151-70.3c20.521-6.668 40.223-15.186 44.816-19.333-1.553 0-1.187-12.891-4.889-20.002-1.334-2.594-4.667-7.407-9.038-13.926-27.775-42.519-85.777-130.967-85.777-214.224 0-160.374 108.522-290.896 241.931-290.896 133.556 0 242.224 130.522 242.224 290.896 0 76.595-51.478 154.15-82.144 200.522-8.598 12.818-15.707 22.668-18.155 28.745-5.329 18.293-3.922 25.331-3.922 25.409 1.847-2.742 19.555 8.215 32.147 13.185l177.632 69.259c51.185 18.367 87.557 67.777 87.557 119.924v18.82c0.001 59.255-46.889 102.298-111.261 102.298zM435.428 126.962c-98.458 0-178.735 102.351-178.735 228.191 0 64.49 53.191 145.742 76.014 180.459 5.831 9.053 11.173 15.354 13.172 19.133 15.33 29.702 12.411 74.759-5.697 95.334-16.677 18.409-54.91 31.722-70.55 36.511l-158.231 70.554c-28.581 10.473-47.886 35.158-47.886 59.551v19.003c0 27.907 25.137 37.785 46.761 37.785h652.476c21.621 0 46.759-9.877 46.759-37.785v-19.005c0-25.138-19.305-50.204-45.717-59.777l-180.159-70.177c-9.349-3.59-41.665-16.908-58.426-33.593-17.958-17.213-20.876-45.414-8.906-85.965 3.59-11.822 12.045-24.613 26.036-45.789 26.934-40.625 72.045-108.629 72.045-166.241 0-125.839-80.202-228.191-178.957-228.191zM435.428 126.962z" p-id="1006" fill="#8a8a8a"></path><path d="M740.852 425.253c-18.521 0-33.407-9.404-33.407-29.33 0-19.707 14.886-29.111 33.407-29.111h245.095c18.518 0 32.444 9.406 32.444 29.111 0 19.999-16.074 29.33-34.445 29.33h-243.094zM790.629 558.965c-18.371 0-33.405-9.411-33.405-29.259 0-19.851 15.034-29.263 33.405-29.263h195.766c18.513 0 31.403 9.411 31.403 29.263 0 19.847-13.997 29.259-32.443 29.259h-194.726zM852.261 684.965c-18.368 0-33.26-9.405-33.26-29.26 0-19.852 14.892-29.113 33.26-29.113h134.721c18.519 0 32.444 9.261 32.444 29.113 0 19.854-14.886 29.26-33.552 29.26h-133.613zM852.261 684.965z" p-id="1007" fill="#8a8a8a"></path></svg>